<?xml version="1.0" encoding="utf-8"?>
<!-- Generator: Adobe Illustrator 20.0.0, SVG Export Plug-In . SVG Version: 6.00 Build 0)  -->
<svg version="1.1" id="Layer_1" xmlns="http://www.w3.org/2000/svg" xmlns:xlink="http://www.w3.org/1999/xlink" x="0px" y="0px"
	 viewBox="0 0 200.5 218.6" style="enable-background:new 0 0 200.5 218.6;" xml:space="preserve">
<style type="text/css">
	.st0{fill:#FFCD05;}
	.st1{stroke:#000000;stroke-miterlimit:10;}
	.st2{fill:none;stroke:#000000;stroke-width:2;stroke-miterlimit:10;}
	.st3{stroke:#000000;stroke-width:2;stroke-miterlimit:10;}
	.st4{stroke:#000000;stroke-width:3;stroke-miterlimit:10;}
	.st5{fill:#DAF0EE;}
</style>
<g id="Layer_1_1_">
</g>
<g id="Layer_2">
</g>
<g id="Layer_3">
	<g>
		<ellipse class="st0" cx="102.8" cy="131.2" rx="88.2" ry="50"/>
		<circle class="st1" cx="47.6" cy="109.5" r="6.5"/>
		<path class="st2" d="M20,147.7c11.7,0,21.1-6.4,21.1-14.2"/>
		<path class="st3" d="M119.9,81.2c5.7,48.2,13.5,96.3,13.5,96.3c4.2-1.3,11.9-2.5,11.9-2.5c6.3-39.4-11.9-92.6-11.9-92.6
			L119.9,81.2z"/>
		<path class="st3" d="M73.7,83.9c11.1,17.2,1.4,94.5,1.4,94.5l15.4,1.7c9.6-44.2-4.8-99-4.8-99L73.7,83.9z"/>
		<path class="st1" d="M172.7,161.8c43.6-33.9-2.2-62.7-2.2-62.7L172.7,161.8z"/>
		<path class="st2" d="M35.1,61.6c9,0,16.2,13.4,16.2,30"/>
		<circle class="st4" cx="32.8" cy="60.9" r="2.3"/>
		<path class="st2" d="M28,64.1c9,0,16.2,13.4,16.2,30"/>
		<circle class="st4" cx="26.7" cy="63.2" r="2.3"/>
		<path class="st5" d="M71.8,83.9c-32.7-42.3-8.2-73.8-8.2-73.8c24.4-21.5,49.8,3.4,49.8,3.4c28.7-14.3,47.3-3.3,47.3-3.3
			C198.6,37.8,144.9,87,144.9,87C120.6,81.1,71.8,84,71.8,83.9z"/>
	</g>
</g>
</svg>
