<?xml version="1.0" encoding="utf-8"?>
<!-- Generator: Adobe Illustrator 20.0.0, SVG Export Plug-In . SVG Version: 6.00 Build 0)  -->
<svg version="1.1" id="Layer_1" xmlns="http://www.w3.org/2000/svg" xmlns:xlink="http://www.w3.org/1999/xlink" x="0px" y="0px"
	 viewBox="0 0 1366 638" style="enable-background:new 0 0 1366 638;" xml:space="preserve">
<style type="text/css">
	.st0{fill:#72C8F1;}
	.st1{fill:#4FB848;}
	.st2{fill:#F7EC13;stroke:#000000;stroke-miterlimit:10;}
	.st3{display:none;}
	.st4{display:inline;}
	.st5{fill:#F5EB14;stroke:#000000;stroke-miterlimit:10;}
	.st6{fill:#653614;stroke:#000000;stroke-miterlimit:10;}
	.st7{fill:none;stroke:#8EC03F;stroke-width:7;stroke-miterlimit:10;}
	.st8{fill:#653716;}
	.st9{fill:#FFCD05;}
	.st10{fill:#653614;}
	.st11{fill:#EC2426;}
	.st12{fill:#ED2024;}
	.st13{fill:#F8991D;}
	.st14{fill:#3953A4;}
	.st15{fill:#7352A2;}
	.st16{fill:#8EC03F;}
</style>
<g id="Layer_1_1_">
	<rect y="1.4" class="st0" width="1366" height="636.8"/>
	<ellipse class="st1" cx="1120.5" cy="152.3" rx="36.3" ry="40.4"/>
	<ellipse class="st1" cx="1190.3" cy="112" rx="36.3" ry="40.4"/>
	<ellipse class="st1" cx="1120.5" cy="152.3" rx="36.3" ry="40.4"/>
	<ellipse class="st1" cx="1135.7" cy="106.6" rx="36.3" ry="40.4"/>
	<ellipse class="st1" cx="1179.9" cy="71.6" rx="36.3" ry="40.4"/>
	<ellipse class="st1" cx="1084.2" cy="106.6" rx="36.3" ry="40.4"/>
	<ellipse class="st1" cx="1156.8" cy="33.7" rx="36.3" ry="40.4"/>
	<ellipse class="st1" cx="1107.3" cy="57" rx="36.3" ry="40.4"/>
	<ellipse class="st1" cx="1172.1" cy="172.1" rx="36.3" ry="40.4"/>
	<ellipse class="st1" cx="1135.7" cy="202.5" rx="36.3" ry="40.4"/>
	<ellipse class="st1" cx="1080.9" cy="182.6" rx="36.3" ry="40.4"/>
	<ellipse class="st1" cx="1047.8" cy="142.2" rx="36.3" ry="40.4"/>
	<ellipse class="st1" cx="1202.3" cy="187.3" rx="36.3" ry="40.4"/>
	<ellipse class="st1" cx="1272.1" cy="46.4" rx="36.3" ry="40.4"/>
	<ellipse class="st1" cx="1238.7" cy="31.3" rx="36.3" ry="40.4"/>
	<ellipse class="st1" cx="1323.9" cy="44.1" rx="36.3" ry="40.4"/>
	<ellipse class="st1" cx="1344.8" cy="33.7" rx="36.3" ry="40.4"/>
	<ellipse class="st1" cx="1300.1" cy="25.8" rx="36.3" ry="40.4"/>
	<ellipse class="st1" cx="1199.5" cy="33.7" rx="36.3" ry="40.4"/>
	<ellipse class="st1" cx="1241.8" cy="212.6" rx="36.3" ry="40.4"/>
	<ellipse class="st1" cx="1179.9" cy="212.6" rx="36.3" ry="40.4"/>
	
		<ellipse transform="matrix(0.2327 -0.9725 0.9725 0.2327 -12.9779 64.3244)" class="st2" cx="34.3" cy="40.4" rx="71.4" ry="67.2"/>
	<ellipse class="st1" cx="1058.2" cy="44.1" rx="36.3" ry="40.4"/>
	<ellipse class="st1" cx="1034.6" cy="100.1" rx="36.3" ry="40.4"/>
	<ellipse class="st1" cx="1029.8" cy="172.1" rx="36.3" ry="40.4"/>
	<ellipse class="st1" cx="1080.9" cy="227.8" rx="36.3" ry="40.4"/>
	<ellipse class="st1" cx="1107.3" cy="6.1" rx="36.3" ry="40.4"/>
	<ellipse class="st1" cx="1143.5" cy="260.5" rx="36.3" ry="40.4"/>
	<ellipse class="st1" cx="1205.4" cy="253.5" rx="36.3" ry="40.4"/>
</g>
<g id="Layer_2">
	<polygon class="st1" points="0,508.8 4.6,502.4 10.2,508.8 13.1,499.1 20.5,508.8 25.1,504 30.7,508.8 40.1,499.1 40.1,508.8 
		49.5,504 52.9,508.8 56.7,501.4 62.3,508.8 64.9,499.1 72.6,508.8 72.6,502.4 79.4,508.8 83.2,504 88.3,508.8 93.4,504 98.2,508.8 
		100.7,505.1 105.9,508.8 109.3,505.1 111.9,508.8 116.5,504 119,508.8 127.6,501.9 131.5,508.8 135.3,504 137.5,508.8 142.9,499.1 
		147.2,508.8 152.9,502.9 155.4,508.8 	"/>
	<rect x="-1" y="507.8" class="st1" width="1367" height="130.3"/>
	<polygon class="st1" points="155.4,508.8 160,502.4 165.5,508.8 168.6,499.1 175.7,508.8 180.5,504 186,508.8 195.4,499.1 
		195.4,508.8 204.8,504 208.2,508.8 212.1,501.4 217.6,508.8 220.2,499.1 227.9,508.8 227.9,502.4 234.7,508.8 238.6,504 
		243.7,508.8 248.9,504 253.5,508.8 256,505.1 261.2,508.8 264.6,505.1 267.1,508.8 271.9,504 274.5,508.8 283,501.9 286.8,508.8 
		290.7,504 292.8,508.8 298.4,499.1 302.7,508.8 308.1,502.9 310.7,508.8 	"/>
	<polygon class="st1" points="310.7,508.8 315.5,502.4 321,508.8 324,499.1 331.2,508.8 336,504 341.5,508.8 350.9,499.1 
		350.9,508.8 360.3,504 363.7,508.8 367.6,501.4 373.1,508.8 375.6,499.1 383.3,508.8 383.3,502.4 390.2,508.8 394.1,504 
		399.2,508.8 404.3,504 408.9,508.8 411.5,505.1 416.6,508.8 420,505.1 422.6,508.8 427.4,504 430,508.8 438.5,501.9 442.3,508.8 
		446.2,504 448.2,508.8 453.9,499.1 458.1,508.8 463.6,502.9 466.2,508.8 	"/>
	<polygon class="st1" points="466.2,508.8 471,502.4 476.4,508.8 479.5,499.1 486.7,508.8 491.5,504 496.9,508.8 506.3,499.1 
		506.3,508.8 515.7,504 519.1,508.8 523.1,501.4 528.5,508.8 531.1,499.1 538.8,508.8 538.8,502.4 545.6,508.8 549.5,504 
		554.7,508.8 559.8,504 564.4,508.8 567,505.1 572.1,508.8 575.5,505.1 578.1,508.8 582.9,504 585.4,508.8 594,501.9 597.7,508.8 
		601.7,504 603.7,508.8 609.3,499.1 613.6,508.8 619.1,502.9 621.6,508.8 	"/>
	<polygon class="st1" points="621.6,508.8 626.4,502.4 631.9,508.8 635,499.1 642.1,508.8 646.9,504 652.4,508.8 661.8,499.1 
		661.8,508.8 671.2,504 674.6,508.8 678.5,501.4 684,508.8 686.6,499.1 694.2,508.8 694.2,502.4 701.1,508.8 705,504 710.1,508.8 
		715.3,504 719.9,508.8 722.4,505.1 727.6,508.8 731,505.1 733.5,508.8 738.3,504 740.9,508.8 749.4,501.9 753.2,508.8 757.1,504 
		759.2,508.8 764.8,499.1 769.1,508.8 774.5,502.9 777.1,508.8 	"/>
	<polygon class="st1" points="777.1,507.8 781.9,501.4 787.4,507.8 790.4,498.1 797.6,507.8 802.4,503 807.9,507.8 817.3,498.1 
		817.3,507.8 826.7,503 830.1,507.8 834,500.4 839.5,507.8 842,498.1 849.7,507.8 849.7,501.4 856.5,507.8 860.5,503 865.6,507.8 
		870.7,503 875.3,507.8 877.9,504.1 883,507.8 886.4,504.1 889,507.8 893.8,503 896.4,507.8 904.9,500.9 908.7,507.8 912.6,503 
		914.6,507.8 920.3,498.1 924.5,507.8 930,501.9 932.6,507.8 	"/>
	<polygon class="st1" points="932.6,507.8 937.2,501.4 942.8,507.8 945.7,498.1 953.1,507.8 957.7,503 963.3,507.8 972.7,498.1 
		972.7,507.8 982.1,503 985.5,507.8 989.3,500.4 994.9,507.8 997.5,498.1 1005.2,507.8 1005.2,501.4 1012,507.8 1015.8,503 
		1020.9,507.8 1026,503 1030.8,507.8 1033.4,504.1 1038.5,507.8 1041.9,504.1 1044.5,507.8 1049.1,503 1051.6,507.8 1060.2,500.9 
		1064.1,507.8 1067.9,503 1070.1,507.8 1075.6,498.1 1079.8,507.8 1085.5,501.9 1088,507.8 	"/>
	<polygon class="st1" points="1088,508.8 1092.6,502.4 1098.3,508.8 1101.2,499.1 1108.5,508.8 1113.2,504 1118.8,508.8 
		1128.2,499.1 1128.2,508.8 1137.6,504 1141,508.8 1144.8,501.4 1150.4,508.8 1153,499.1 1160.6,508.8 1160.6,502.4 1167.5,508.8 
		1171.2,504 1176.4,508.8 1181.5,504 1186.3,508.8 1188.8,505.1 1194,508.8 1197.4,505.1 1199.9,508.8 1204.6,504 1207.1,508.8 
		1215.7,501.9 1219.6,508.8 1223.3,504 1225.6,508.8 1231,499.1 1235.3,508.8 1240.9,502.9 1243.5,508.8 	"/>
</g>
<g id="Layer_4" class="st3">
	<g class="st4">
		<path class="st2" d="M978.1,196.8c0,0,35,16.4,84,0c0,0,9.8,11.5,0,26.4c0,0-56.4,14.8-84-2.9
			C978.1,220.2,967.7,213.8,978.1,196.8z"/>
		<path class="st2" d="M982.4,237.3c0,0,38,18.1,73.3,0.5c2.3,16.6-7.7,23.2-7.7,23.2s-30.7,19.8-57.2-1.9
			C982.4,250.8,982.4,237.3,982.4,237.3z"/>
		<path class="st2" d="M978.2,220.2c0,0,19,18.8,83.4,2.9c0,0,2.7,12-4.8,20.6c0,0-35.1,16.6-74.3,0
			C982.4,243.8,970.6,230.6,978.2,220.2z"/>
		<path class="st5" d="M978.1,196.8c0,0,41.8,16,84,0C1024.8,179.4,978.1,196.8,978.1,196.8z"/>
	</g>
</g>
<g id="Layer_3">
	<path class="st6" d="M1223.5,510.3c0,0,85.5-322.1-16.6-345.6c0,0-118.6-32.4-192.4,37.2c0,0,17.2-100,186.9-82.1
		c0,0,19.3-47.3-29-96.1c0,0,60.7,0.9,91,60.2c0,0,82.3-16.1,102.2-59.8v486c0,0-31.8-5.5-36.6,0c0,0-26.2,11.8-44.8,0
		c0,0-42.1,0-41.4,0C1242.8,510.3,1221.6,518,1223.5,510.3z"/>
</g>
<g id="Layer_5">
	<polygon class="st1" points="1200,514 1202.5,502.3 1205.5,514 1207.2,496.5 1211,514 1213.6,505.2 1216.7,514 1221.7,496.5 
		1221.7,514 1226.7,505.2 1228.6,514 1230.7,500.5 1233.7,514 1235,496.5 1239.2,514 1239.2,502.3 1242.9,514 1245,505.2 
		1247.8,514 1250.5,505.2 1253.1,514 1254.5,507.3 1257.3,514 1259,507.3 1260.4,514 1263,505.2 1264.4,514 1269,501.5 1271.1,514 
		1273.2,505.2 1274.4,514 1277.3,496.5 1279.6,514 1282.5,503.2 1284,514 	"/>
	<polygon class="st1" points="1260.7,516.4 1263.8,502.4 1267.7,516.4 1269.7,495.5 1274.7,516.4 1277.9,505.9 1281.7,516.4 
		1288.2,495.5 1288.2,516.4 1294.6,505.9 1296.9,516.4 1299.5,500.3 1303.4,516.4 1305.1,495.5 1310.4,516.4 1310.4,502.4 
		1315.1,516.4 1317.7,505.9 1321.2,516.4 1324.7,505.9 1328,516.4 1329.7,508.4 1333.2,516.4 1335.6,508.4 1337.3,516.4 
		1340.5,505.9 1342.2,516.4 1348.1,501.4 1350.8,516.4 1353.4,505.9 1354.9,516.4 1358.6,495.5 1361.5,516.4 1365.4,503.5 
		1367.2,516.4 	"/>
</g>
<g id="Layer_6">
	<path class="st7" d="M494.6,302.6c0,0-17.4,34.6,12.2,77.3c0,0,29.9,47.2,0,91.6"/>
	<path class="st7" d="M392.6,302.6c0,0-17.4,34.6,12.2,77.3c0,0,29.9,47.2,0,91.6"/>
	<path class="st7" d="M284,304c0,0-17.4,34.6,12.2,77.3c0,0,29.9,47.2,0,91.6"/>
	<path class="st7" d="M181.2,305c0,0-17.4,34.6,12.2,77.3c0,0,29.9,47.2,0,91.6"/>
	<path class="st7" d="M74.1,305c0,0-17.4,34.6,12.2,77.3c0,0,29.9,47.2,0,91.6"/>
	<g>
		<g>
			<path class="st8" d="M68.1,483.6c0,0,19.9,6.4,40,0c0,0-1.3,19.3-3.3,25.2c-1.8,5.9-26.7,6.9-33.9,2.3
				C70.9,511.1,68.1,495.5,68.1,483.6z"/>
			<path class="st8" d="M66.3,473.2c0,0,18.6,6.9,42.6,0C108.9,473.2,94.2,466.8,66.3,473.2z"/>
		</g>
		<path class="st6" d="M68.1,472.2c0,0,19.7,8.2,40,0v12c0,0-17.5,6.9-40,0V472.2z"/>
	</g>
	<g>
		<g>
			<path class="st8" d="M172.4,483.6c0,0,19.9,6.4,40,0c0,0-1.3,19.3-3.3,25.2c-1.8,5.9-26.7,6.9-33.9,2.3
				C175.2,511.1,172.4,495.5,172.4,483.6z"/>
			<path class="st8" d="M170.6,473.2c0,0,18.6,6.9,42.6,0C213.2,473.2,198.5,466.8,170.6,473.2z"/>
		</g>
		<path class="st6" d="M172.4,472.2c0,0,19.7,8.2,40,0v12c0,0-17.5,6.9-40,0V472.2z"/>
	</g>
	<g>
		<g>
			<path class="st8" d="M276.7,483.6c0,0,19.9,6.4,40,0c0,0-1.3,19.3-3.3,25.2c-1.8,5.9-26.7,6.9-33.9,2.3
				C279.5,511.1,276.7,495.5,276.7,483.6z"/>
			<path class="st8" d="M274.9,473.2c0,0,18.6,6.9,42.6,0C317.5,473.2,302.8,466.8,274.9,473.2z"/>
		</g>
		<path class="st6" d="M276.7,472.2c0,0,19.7,8.2,40,0v12c0,0-17.5,6.9-40,0V472.2L276.7,472.2z"/>
	</g>
	<g>
		<g>
			<path class="st8" d="M381,483.6c0,0,19.9,6.4,40,0c0,0-1.3,19.3-3.3,25.2c-1.8,5.9-26.7,6.9-33.9,2.3
				C383.8,511.1,381,495.5,381,483.6z"/>
			<path class="st8" d="M379.2,473.2c0,0,18.6,6.9,42.6,0C421.8,473.2,407.1,466.8,379.2,473.2z"/>
		</g>
		<path class="st6" d="M381,472.2c0,0,19.7,8.2,40,0v12c0,0-17.5,6.9-40,0V472.2z"/>
	</g>
	<g>
		<g>
			<path class="st8" d="M485.3,483.6c0,0,19.9,6.4,40,0c0,0-1.3,19.3-3.3,25.2c-1.8,5.9-26.7,6.9-33.9,2.3
				C488.1,511.1,485.3,495.5,485.3,483.6z"/>
			<path class="st8" d="M483.5,473.2c0,0,18.6,6.9,42.6,0C526.1,473.2,511.5,466.8,483.5,473.2z"/>
		</g>
		<path class="st6" d="M485.3,472.2c0,0,19.7,8.2,40,0v12c0,0-17.5,6.9-40,0V472.2z"/>
	</g>
	<g>
		<path class="st9" d="M70.6,294.5c0,0-11,13.4-25.5,5.7c0,0,4-14,23.4-16.3C68.6,283.9,65.3,287,70.6,294.5z"/>
		<path class="st9" d="M67.6,286.9c0,0-17.4,0.5-20.9-15.6c0,0,13.2-6.2,27.5,7C74.3,278.3,69.7,278,67.6,286.9z"/>
		<path class="st9" d="M71.4,277.1c0,0-9.3-14.6,2.5-26c0,0,12.1,8.1,8.2,27.3C82.1,278.4,80.2,274.3,71.4,277.1z"/>
		<path class="st9" d="M83.6,277.1c0,0,7.1-15.8,23.1-12.1c0,0-0.1,14.6-18.2,21.9C88.4,286.9,90.7,283,83.6,277.1z"/>
		<path class="st9" d="M86.3,287c0,0,16.8-4.2,23.8,10.6c0,0-11.6,8.9-28.5-0.8C81.7,296.8,86.2,296.3,86.3,287z"/>
		<path class="st9" d="M81,296.4c0,0,4.5,16.8-10.3,23.9c0,0-9.1-11.3,0.4-28.5C71.1,292,71.7,296.4,81,296.4z"/>
		<circle class="st10" cx="77.6" cy="286.5" r="10.9"/>
	</g>
	<g>
		<path class="st11" d="M176.8,294.5c0,0-11,13.4-25.5,5.7c0,0,4-14,23.4-16.3C174.7,283.9,171.3,287,176.8,294.5z"/>
		<path class="st11" d="M173.6,286.9c0,0-17.4,0.5-20.9-15.6c0,0,13.2-6.2,27.5,7C180.3,278.3,175.8,278,173.6,286.9z"/>
		<path class="st12" d="M177.5,277.1c0,0-9.3-14.6,2.5-26c0,0,12.1,8.1,8.2,27.3C188.1,278.4,186.2,274.3,177.5,277.1z"/>
		<path class="st11" d="M189.6,277.1c0,0,7.1-15.8,23.1-12.1c0,0-0.1,14.6-18.2,21.9C194.4,286.9,196.7,283,189.6,277.1z"/>
		<path class="st11" d="M192.5,287c0,0,16.8-4.2,23.8,10.6c0,0-11.6,8.9-28.5-0.8C187.7,296.8,192.2,296.3,192.5,287z"/>
		<path class="st11" d="M187,296.4c0,0,4.5,16.8-10.3,23.9c0,0-9.1-11.3,0.4-28.5C177.2,292,177.8,296.4,187,296.4z"/>
		<circle class="st10" cx="183.6" cy="286.5" r="10.9"/>
	</g>
	<g>
		<path class="st13" d="M283.1,295.2c0,0-11,13.4-25.5,5.7c0,0,4-14,23.4-16.3C281.1,284.6,277.8,287.7,283.1,295.2z"/>
		<path class="st13" d="M280,287.6c0,0-17.4,0.5-20.9-15.6c0,0,13.2-6.2,27.5,7C286.6,279,282.2,278.7,280,287.6z"/>
		<path class="st13" d="M283.8,277.8c0,0-9.3-14.6,2.5-26c0,0,12.1,8.1,8.2,27.3C294.6,279.2,292.7,275.1,283.8,277.8z"/>
		<path class="st13" d="M295.9,277.8c0,0,7.1-15.8,23.1-12.1c0,0-0.1,14.6-18.2,21.9C300.7,287.6,303.2,283.8,295.9,277.8z"/>
		<path class="st13" d="M298.8,287.7c0,0,16.8-4.2,23.8,10.6c0,0-11.6,8.9-28.5-0.8C294.1,297.5,298.7,297,298.8,287.7z"/>
		<path class="st13" d="M293.4,297.2c0,0,4.5,16.8-10.3,23.9c0,0-9.1-11.3,0.4-28.5C283.6,292.7,284.2,297.2,293.4,297.2z"/>
		<circle class="st10" cx="290.1" cy="287.3" r="10.9"/>
	</g>
	<g>
		<path class="st14" d="M388.3,294.5c0,0-11,13.4-25.5,5.7c0,0,4-14,23.4-16.3C386.2,283.9,383,287,388.3,294.5z"/>
		<path class="st14" d="M385.2,286.9c0,0-17.4,0.5-20.9-15.6c0,0,13.2-6.2,27.5,7C391.9,278.3,387.3,278,385.2,286.9z"/>
		<path class="st14" d="M389,277.1c0,0-9.3-14.6,2.5-26c0,0,12.1,8.1,8.2,27.3C399.7,278.4,397.8,274.3,389,277.1z"/>
		<path class="st14" d="M401.2,277.1c0,0,7.1-15.8,23.1-12.1c0,0-0.1,14.6-18.2,21.9C406,286.9,408.3,283,401.2,277.1z"/>
		<path class="st14" d="M404,287c0,0,16.8-4.2,23.8,10.6c0,0-11.6,8.9-28.5-0.8C399.4,296.8,403.8,296.3,404,287z"/>
		<path class="st14" d="M398.6,296.4c0,0,4.5,16.8-10.3,23.9c0,0-9.1-11.3,0.4-28.5C388.7,292,389.4,296.4,398.6,296.4z"/>
		<circle class="st10" cx="395.3" cy="286.5" r="10.9"/>
	</g>
	<g>
		<path class="st15" d="M492.6,294.5c0,0-11,13.4-25.5,5.7c0,0,4-14,23.4-16.3C490.5,283.9,487.3,287,492.6,294.5z"/>
		<path class="st15" d="M489.4,286.9c0,0-17.4,0.5-20.9-15.6c0,0,13.2-6.2,27.5,7C496.1,278.3,491.6,278,489.4,286.9z"/>
		<path class="st15" d="M493.3,277.1c0,0-9.3-14.6,2.5-26c0,0,12.1,8.1,8.2,27.3C504,278.4,502.1,274.3,493.3,277.1z"/>
		<path class="st15" d="M505.4,277.1c0,0,7.1-15.8,23.1-12.1c0,0-0.1,14.6-18.2,21.9C510.2,286.9,512.6,283,505.4,277.1z"/>
		<path class="st15" d="M508.3,287c0,0,16.8-4.2,23.8,10.6c0,0-11.6,8.9-28.5-0.8C503.6,296.8,508.1,296.3,508.3,287z"/>
		<path class="st15" d="M502.8,296.4c0,0,4.5,16.8-10.3,23.9c0,0-9.1-11.3,0.4-28.5C493.1,292,493.7,296.4,502.8,296.4z"/>
		<circle class="st10" cx="499.6" cy="286.5" r="10.9"/>
	</g>
	<path class="st16" d="M101.7,349.9c0,0,1.3,15.1-15.5,19.1S84.8,345.3,101.7,349.9z"/>
	<path class="st16" d="M224,376.1c0,0,1.3,15.1-15.5,19.1S207.1,371.5,224,376.1z"/>
	<path class="st16" d="M148.5,331c0,0,13.2-7.6,23.8,5.9C183,350.3,151.5,348.2,148.5,331z"/>
	<path class="st16" d="M333.9,406.3c0,0,1.3,15.1-15.5,19.1C301.7,429.4,317,401.7,333.9,406.3z"/>
	<path class="st16" d="M412.5,324c0,0,1.3,15.1-15.5,19.1C380.4,347.1,395.6,319.4,412.5,324z"/>
	<path class="st16" d="M388.3,434.4c0,0,13.3-7.4,23.8,6.3C422.6,454.3,391,451.7,388.3,434.4z"/>
	<path class="st16" d="M489.8,395.4c0,0,14-5.9,22.9,8.8C521.7,418.8,490.6,412.9,489.8,395.4z"/>
</g>
</svg>
