<?xml version="1.0" encoding="utf-8"?>
<!-- Generator: Adobe Illustrator 20.0.0, SVG Export Plug-In . SVG Version: 6.00 Build 0)  -->
<svg version="1.1" xmlns="http://www.w3.org/2000/svg" xmlns:xlink="http://www.w3.org/1999/xlink" x="0px" y="0px"
	 viewBox="0 0 200.5 218.6" style="enable-background:new 0 0 200.5 218.6;" xml:space="preserve">
<style type="text/css">
	.st0{fill:#FFCD05;}
	.st1{stroke:#000000;stroke-miterlimit:10;}
	.st2{fill:none;stroke:#000000;stroke-width:2;stroke-miterlimit:10;}
	.st3{stroke:#000000;stroke-width:2;stroke-miterlimit:10;}
	.st4{stroke:#000000;stroke-width:3;stroke-miterlimit:10;}
	.st5{fill:#DAF0EE;}
</style>
<g id="Layer_1">
</g>
<g id="Layer_2">
</g>
<g id="Layer_3">
	<g>
		<ellipse class="st0" cx="103.3" cy="131.2" rx="88.2" ry="50"/>
		<circle class="st1" cx="158.5" cy="109.5" r="6.5"/>
		<path class="st2" d="M165,133.5c0,7.8,9.4,14.2,21.1,14.2"/>
		<path class="st3" d="M72.7,82.4c0,0-18.2,53.2-11.9,92.6c0,0,7.7,1.2,11.9,2.5c0,0,7.8-48.1,13.5-96.3L72.7,82.4z"/>
		<path class="st3" d="M120.4,81.1c0,0-14.4,54.8-4.8,99l15.4-1.7c0,0-9.7-77.3,1.4-94.5L120.4,81.1z"/>
		<path class="st1" d="M35.6,99.1c0,0-45.8,28.8-2.2,62.7L35.6,99.1z"/>
		<path class="st2" d="M154.8,91.6c0-16.6,7.2-30,16.2-30"/>
		<circle class="st4" cx="173.3" cy="60.9" r="2.3"/>
		<path class="st2" d="M161.9,94.1c0-16.6,7.2-30,16.2-30"/>
		<circle class="st4" cx="179.4" cy="63.2" r="2.3"/>
		<path class="st5" d="M61.2,87c0,0-53.7-49.2-15.8-76.8c0,0,18.6-11,47.3,3.3c0,0,25.4-24.9,49.8-3.4c0,0,24.5,31.5-8.2,73.8
			C134.3,84,85.5,81.1,61.2,87z"/>
	</g>
</g>
</svg>
