<?xml version="1.0" encoding="utf-8"?>
<!-- Generator: Adobe Illustrator 20.0.0, SVG Export Plug-In . SVG Version: 6.00 Build 0)  -->
<svg version="1.1" id="Layer_1" xmlns="http://www.w3.org/2000/svg" xmlns:xlink="http://www.w3.org/1999/xlink" x="0px" y="0px"
	 viewBox="0 0 1366 638" style="enable-background:new 0 0 1366 638;" xml:space="preserve">
<style type="text/css">
	.st0{display:none;}
	.st1{display:inline;fill:#72C8F1;}
	.st2{display:inline;fill:#4FB848;}
	.st3{display:inline;fill:#F7EC13;stroke:#000000;stroke-miterlimit:10;}
	.st4{fill:#F7EC13;stroke:#000000;stroke-miterlimit:10;}
	.st5{fill:#F5EB14;stroke:#000000;stroke-miterlimit:10;}
	.st6{display:inline;fill:#653614;stroke:#000000;stroke-miterlimit:10;}
</style>
<g id="Layer_1_1_" class="st0">
	<rect x="261.8" y="21.8" class="st1" width="841.9" height="486"/>
	<circle class="st2" cx="861.5" cy="149.5" r="34.8"/>
	<circle class="st2" cx="928.3" cy="114.7" r="34.8"/>
	<circle class="st2" cx="861.5" cy="149.5" r="34.8"/>
	<circle class="st2" cx="876" cy="110.1" r="34.8"/>
	<circle class="st2" cx="918.5" cy="79.9" r="34.8"/>
	<circle class="st2" cx="826.6" cy="110.1" r="34.8"/>
	<circle class="st2" cx="896.3" cy="47.2" r="34.8"/>
	<circle class="st2" cx="848.8" cy="67.3" r="34.8"/>
	<circle class="st2" cx="911" cy="166.6" r="34.8"/>
	<circle class="st2" cx="876" cy="192.8" r="34.8"/>
	<circle class="st2" cx="823.5" cy="175.6" r="34.8"/>
	<circle class="st2" cx="791.8" cy="140.8" r="34.8"/>
	<circle class="st2" cx="940" cy="179.7" r="34.8"/>
	<circle class="st2" cx="1006.8" cy="58.2" r="34.8"/>
	<circle class="st2" cx="974.8" cy="45.1" r="34.8"/>
	<circle class="st2" cx="1056.6" cy="56.2" r="34.8"/>
	<circle class="st2" cx="1076.6" cy="47.2" r="34.8"/>
	<circle class="st2" cx="1033.8" cy="40.4" r="34.8"/>
	<circle class="st2" cx="937.3" cy="47.2" r="34.8"/>
	<circle class="st2" cx="977.8" cy="201.5" r="34.8"/>
	<circle class="st2" cx="918.5" cy="201.5" r="34.8"/>
	<ellipse transform="matrix(0.2327 -0.9725 0.9725 0.2327 162.235 326.3941)" class="st3" cx="288" cy="60.4" rx="71.4" ry="67.2"/>
	<circle class="st2" cx="801.6" cy="56.2" r="34.8"/>
	<circle class="st2" cx="779" cy="104.5" r="34.8"/>
	<circle class="st2" cx="774.5" cy="166.6" r="34.8"/>
	<circle class="st2" cx="823.5" cy="214.6" r="34.8"/>
	<circle class="st2" cx="848.8" cy="23.4" r="34.8"/>
	<circle class="st2" cx="883.5" cy="242.8" r="34.8"/>
	<circle class="st2" cx="942.8" cy="236.8" r="34.8"/>
</g>
<g id="Layer_2" class="st0">
	<polygon class="st2" points="262.8,508.8 265.5,502.4 268.8,508.8 270.5,499.1 274.8,508.8 277.5,504 280.8,508.8 286.3,499.1 
		286.3,508.8 291.8,504 293.8,508.8 296,501.4 299.3,508.8 300.8,499.1 305.3,508.8 305.3,502.4 309.3,508.8 311.5,504 314.5,508.8 
		317.5,504 320.3,508.8 321.8,505.1 324.8,508.8 326.8,505.1 328.3,508.8 331,504 332.5,508.8 337.5,501.9 339.8,508.8 342,504 
		343.3,508.8 346.5,499.1 349,508.8 352.3,502.9 353.8,508.8 	"/>
	<rect x="261.8" y="507.8" class="st2" width="844.2" height="108.8"/>
	<polygon class="st2" points="353.8,508.8 356.5,502.4 359.8,508.8 361.5,499.1 365.8,508.8 368.5,504 371.8,508.8 377.3,499.1 
		377.3,508.8 382.8,504 384.8,508.8 387,501.4 390.3,508.8 391.8,499.1 396.3,508.8 396.3,502.4 400.3,508.8 402.5,504 405.5,508.8 
		408.5,504 411.3,508.8 412.8,505.1 415.8,508.8 417.8,505.1 419.3,508.8 422,504 423.5,508.8 428.5,501.9 430.8,508.8 433,504 
		434.3,508.8 437.5,499.1 440,508.8 443.3,502.9 444.8,508.8 	"/>
	<polygon class="st2" points="444.8,508.8 447.5,502.4 450.8,508.8 452.5,499.1 456.8,508.8 459.5,504 462.8,508.8 468.3,499.1 
		468.3,508.8 473.8,504 475.8,508.8 478,501.4 481.3,508.8 482.8,499.1 487.3,508.8 487.3,502.4 491.3,508.8 493.5,504 496.5,508.8 
		499.5,504 502.3,508.8 503.8,505.1 506.8,508.8 508.8,505.1 510.3,508.8 513,504 514.5,508.8 519.5,501.9 521.8,508.8 524,504 
		525.3,508.8 528.5,499.1 531,508.8 534.3,502.9 535.8,508.8 	"/>
	<polygon class="st2" points="535.8,508.8 538.5,502.4 541.8,508.8 543.5,499.1 547.8,508.8 550.5,504 553.8,508.8 559.3,499.1 
		559.3,508.8 564.8,504 566.8,508.8 569,501.4 572.3,508.8 573.8,499.1 578.3,508.8 578.3,502.4 582.3,508.8 584.5,504 587.5,508.8 
		590.5,504 593.3,508.8 594.8,505.1 597.8,508.8 599.8,505.1 601.3,508.8 604,504 605.5,508.8 610.5,501.9 612.8,508.8 615,504 
		616.3,508.8 619.5,499.1 622,508.8 625.3,502.9 626.8,508.8 	"/>
	<polygon class="st2" points="626.8,508.8 629.5,502.4 632.8,508.8 634.5,499.1 638.8,508.8 641.5,504 644.8,508.8 650.3,499.1 
		650.3,508.8 655.8,504 657.8,508.8 660,501.4 663.3,508.8 664.8,499.1 669.3,508.8 669.3,502.4 673.3,508.8 675.5,504 678.5,508.8 
		681.5,504 684.3,508.8 685.8,505.1 688.8,508.8 690.8,505.1 692.3,508.8 695,504 696.5,508.8 701.5,501.9 703.8,508.8 706,504 
		707.3,508.8 710.5,499.1 713,508.8 716.3,502.9 717.8,508.8 	"/>
	<polygon class="st2" points="717.8,507.8 720.5,501.4 723.8,507.8 725.5,498.1 729.8,507.8 732.5,503 735.8,507.8 741.3,498.1 
		741.3,507.8 746.8,503 748.8,507.8 751,500.4 754.3,507.8 755.8,498.1 760.3,507.8 760.3,501.4 764.3,507.8 766.5,503 769.5,507.8 
		772.5,503 775.3,507.8 776.8,504.1 779.8,507.8 781.8,504.1 783.3,507.8 786,503 787.5,507.8 792.5,500.9 794.8,507.8 797,503 
		798.3,507.8 801.5,498.1 804,507.8 807.3,501.9 808.8,507.8 	"/>
	<polygon class="st2" points="808.8,507.8 811.5,501.4 814.8,507.8 816.5,498.1 820.8,507.8 823.5,503 826.8,507.8 832.3,498.1 
		832.3,507.8 837.8,503 839.8,507.8 842,500.4 845.3,507.8 846.8,498.1 851.3,507.8 851.3,501.4 855.3,507.8 857.5,503 860.5,507.8 
		863.5,503 866.3,507.8 867.8,504.1 870.8,507.8 872.8,504.1 874.3,507.8 877,503 878.5,507.8 883.5,500.9 885.8,507.8 888,503 
		889.3,507.8 892.5,498.1 895,507.8 898.3,501.9 899.8,507.8 	"/>
	<polygon class="st2" points="899.8,508.8 902.5,502.4 905.8,508.8 907.5,499.1 911.8,508.8 914.5,504 917.8,508.8 923.3,499.1 
		923.3,508.8 928.8,504 930.8,508.8 933,501.4 936.3,508.8 937.8,499.1 942.3,508.8 942.3,502.4 946.3,508.8 948.5,504 951.5,508.8 
		954.5,504 957.3,508.8 958.8,505.1 961.8,508.8 963.8,505.1 965.3,508.8 968,504 969.5,508.8 974.5,501.9 976.8,508.8 979,504 
		980.3,508.8 983.5,499.1 986,508.8 989.3,502.9 990.8,508.8 	"/>
</g>
<g id="Layer_4">
	<g>
		<path class="st4" d="M978.1,196.8c0,0,35,16.4,84,0c0,0,9.8,11.5,0,26.4c0,0-56.4,14.8-84-2.9
			C978.1,220.2,967.7,213.8,978.1,196.8z"/>
		<path class="st4" d="M982.5,237.3c0,0,38,18.1,73.3,0.5c2.3,16.6-7.7,23.2-7.7,23.2s-30.7,19.8-57.2-1.9
			C982.5,250.8,982.5,237.3,982.5,237.3z"/>
		<path class="st4" d="M978.2,220.2c0,0,19,18.8,83.4,2.9c0,0,2.7,12-4.8,20.6c0,0-35.1,16.6-74.3,0
			C982.5,243.8,970.6,230.6,978.2,220.2z"/>
		<path class="st5" d="M978.1,196.8c0,0,41.8,16,84,0C1024.9,179.4,978.1,196.8,978.1,196.8z"/>
	</g>
</g>
<g id="Layer_3" class="st0">
	<path class="st6" d="M961.8,509.8c0,0,85.5-322.1-16.6-345.6c0,0-118.6-32.4-192.4,37.2c0,0,17.2-100,186.9-82.1
		c0,0,19.3-47.3-29-96.1c0,0,60.7,0.9,91,60.2c0,0,82.3-16.1,102.2-59.8v486c0,0-31.8-5.5-36.6,0c0,0-26.2,11.8-44.8,0
		c0,0-42.1,0-41.4,0C981,509.8,959.8,517.5,961.8,509.8z"/>
</g>
<g id="Layer_5" class="st0">
	<polygon class="st2" points="959.8,514 961.8,504 964.5,514 965.8,499 969.1,514 971.3,506.5 974,514 978.3,499 978.3,514 
		982.5,506.5 984.1,514 986,502.5 988.5,514 989.6,499 993.3,514 993.3,504 996.3,514 998.1,506.5 1000.5,514 1002.8,506.5 
		1005,514 1006.3,508.3 1008.6,514 1010.1,508.3 1011.3,514 1013.5,506.5 1014.8,514 1018.6,503.3 1020.5,514 1022.3,506.5 
		1023.3,514 1025.8,499 1027.8,514 1030.3,504.8 1031.4,514 	"/>
	<polygon class="st2" points="1011.5,516 1014.3,504.1 1017.5,516 1019.3,498.1 1023.5,516 1026.3,507.1 1029.6,516 1035.1,498.1 
		1035.1,516 1040.6,507.1 1042.6,516 1044.8,502.3 1048.1,516 1049.6,498.1 1054.1,516 1054.1,504.1 1058.1,516 1060.3,507.1 
		1063.3,516 1066.3,507.1 1069.1,516 1070.6,509.1 1073.6,516 1075.6,509.1 1077.1,516 1079.8,507.1 1081.3,516 1086.3,503.1 
		1088.6,516 1090.8,507.1 1092.1,516 1095.3,498.1 1097.8,516 1101.1,505 1102.6,516 	"/>
</g>
</svg>
